<svg id="visual" viewBox="0 0 900 600" width="900" height="600" xmlns="http://www.w3.org/2000/svg" xmlns:xlink="http://www.w3.org/1999/xlink" version="1.1"><path d="M0 446L37.5 461.2C75 476.3 150 506.7 225 519.5C300 532.3 375 527.7 450 512.3C525 497 600 471 675 458.8C750 446.7 825 448.3 862.5 449.2L900 450L900 601L862.5 601C825 601 750 601 675 601C600 601 525 601 450 601C375 601 300 601 225 601C150 601 75 601 37.5 601L0 601Z" fill="#1b2c19" stroke-linecap="round" stroke-linejoin="miter"></path></svg>